<mxfile host="app.diagrams.net" modified="2022-12-13T18:06:02.842Z" agent="5.0 (Macintosh; Intel Mac OS X 10_15_7) AppleWebKit/537.36 (KHTML, like Gecko) Chrome/108.0.0.0 Safari/537.36" etag="0fiWDzfObrFbjamkZhf-" version="20.6.2" type="github">
  <diagram name="Page-1" id="822b0af5-4adb-64df-f703-e8dfc1f81529">
    <mxGraphModel dx="1666" dy="1796" grid="1" gridSize="10" guides="1" tooltips="1" connect="1" arrows="1" fold="1" page="1" pageScale="1" pageWidth="1100" pageHeight="850" background="none" math="0" shadow="0">
      <root>
        <mxCell id="0" />
        <mxCell id="1" parent="0" />
        <mxCell id="7d933b09d9755ecc-14" value="avengersmansion.local" style="triangle;whiteSpace=wrap;html=1;rounded=0;shadow=0;comic=0;strokeWidth=1;fontFamily=Verdana;direction=north;labelPosition=center;verticalLabelPosition=bottom;align=center;verticalAlign=top;" parent="1" vertex="1">
          <mxGeometry x="830" y="230" width="530" height="537" as="geometry" />
        </mxCell>
        <mxCell id="7d933b09d9755ecc-5" value="" style="verticalLabelPosition=bottom;aspect=fixed;html=1;verticalAlign=top;strokeColor=none;shape=mxgraph.citrix.file_server;rounded=0;shadow=0;comic=0;fontFamily=Verdana;" parent="1" vertex="1">
          <mxGeometry x="1050" y="572" width="71" height="97" as="geometry" />
        </mxCell>
        <mxCell id="7d933b09d9755ecc-18" value="punisher.hydrabase.local" style="triangle;whiteSpace=wrap;html=1;rounded=0;shadow=0;comic=0;strokeWidth=1;fontFamily=Verdana;direction=north;labelPosition=center;verticalLabelPosition=bottom;align=center;verticalAlign=top;" parent="1" vertex="1">
          <mxGeometry x="1620" y="10" width="286" height="340" as="geometry" />
        </mxCell>
        <mxCell id="7d933b09d9755ecc-19" value="" style="ellipse;whiteSpace=wrap;html=1;rounded=0;shadow=0;comic=0;strokeWidth=1;fontFamily=Verdana;" parent="1" vertex="1">
          <mxGeometry x="1689" y="240" width="142" height="90" as="geometry" />
        </mxCell>
        <mxCell id="7d933b09d9755ecc-20" value="Users" style="verticalLabelPosition=bottom;aspect=fixed;html=1;verticalAlign=top;strokeColor=none;shape=mxgraph.citrix.users;rounded=0;shadow=0;comic=0;fontFamily=Verdana;" parent="1" vertex="1">
          <mxGeometry x="1731" y="245" width="64.5" height="55" as="geometry" />
        </mxCell>
        <mxCell id="7d933b09d9755ecc-21" value="" style="verticalLabelPosition=bottom;aspect=fixed;html=1;verticalAlign=top;strokeColor=none;shape=mxgraph.citrix.tower_server;rounded=0;shadow=0;comic=0;fontFamily=Verdana;" parent="1" vertex="1">
          <mxGeometry x="1730.5" y="105" width="65" height="85" as="geometry" />
        </mxCell>
        <mxCell id="7d933b09d9755ecc-25" value="Trust relationship" style="html=1;labelBackgroundColor=none;startArrow=none;startFill=0;endArrow=block;endFill=1;strokeColor=#FF0000;strokeWidth=1;fontFamily=Verdana;fontSize=12;entryX=1;entryY=0.5;curved=1;exitX=1;exitY=0.5;exitDx=0;exitDy=0;" parent="1" target="7d933b09d9755ecc-18" edge="1" source="7d933b09d9755ecc-14">
          <mxGeometry x="-0.0165" y="-10" relative="1" as="geometry">
            <mxPoint x="1095" y="230" as="sourcePoint" />
            <mxPoint x="1530" y="240" as="targetPoint" />
            <Array as="points">
              <mxPoint x="1400" y="110" />
            </Array>
            <mxPoint as="offset" />
          </mxGeometry>
        </mxCell>
        <mxCell id="7d933b09d9755ecc-31" value="hydrabase.local" style="triangle;whiteSpace=wrap;html=1;rounded=0;shadow=0;comic=0;strokeWidth=1;fontFamily=Verdana;direction=north;labelPosition=center;verticalLabelPosition=bottom;align=center;verticalAlign=top;" parent="1" vertex="1">
          <mxGeometry x="540" y="490" width="286" height="340" as="geometry" />
        </mxCell>
        <mxCell id="7d933b09d9755ecc-32" value="" style="ellipse;whiteSpace=wrap;html=1;rounded=0;shadow=0;comic=0;strokeWidth=1;fontFamily=Verdana;" parent="1" vertex="1">
          <mxGeometry x="612.25" y="711" width="142" height="89" as="geometry" />
        </mxCell>
        <mxCell id="7d933b09d9755ecc-33" value="Users" style="verticalLabelPosition=bottom;aspect=fixed;html=1;verticalAlign=top;strokeColor=none;shape=mxgraph.citrix.users;rounded=0;shadow=0;comic=0;fontFamily=Verdana;" parent="1" vertex="1">
          <mxGeometry x="651" y="728" width="64.5" height="55" as="geometry" />
        </mxCell>
        <mxCell id="7d933b09d9755ecc-34" value="" style="verticalLabelPosition=bottom;aspect=fixed;html=1;verticalAlign=top;strokeColor=none;shape=mxgraph.citrix.tower_server;rounded=0;shadow=0;comic=0;fontFamily=Verdana;" parent="1" vertex="1">
          <mxGeometry x="650.5" y="587.5" width="65" height="85" as="geometry" />
        </mxCell>
        <mxCell id="7d933b09d9755ecc-35" value="darkrealm.avengersmansion.local" style="triangle;whiteSpace=wrap;html=1;rounded=0;shadow=0;comic=0;strokeWidth=1;fontFamily=Verdana;direction=north;labelPosition=center;verticalLabelPosition=bottom;align=center;verticalAlign=top;" parent="1" vertex="1">
          <mxGeometry x="1620" y="443" width="286" height="340" as="geometry" />
        </mxCell>
        <mxCell id="7d933b09d9755ecc-36" value="" style="ellipse;whiteSpace=wrap;html=1;rounded=0;shadow=0;comic=0;strokeWidth=1;fontFamily=Verdana;" parent="1" vertex="1">
          <mxGeometry x="1692" y="679.5" width="142" height="96" as="geometry" />
        </mxCell>
        <mxCell id="7d933b09d9755ecc-37" value="Users" style="verticalLabelPosition=bottom;aspect=fixed;html=1;verticalAlign=top;strokeColor=none;shape=mxgraph.citrix.users;rounded=0;shadow=0;comic=0;fontFamily=Verdana;" parent="1" vertex="1">
          <mxGeometry x="1740" y="694.5" width="64.5" height="55" as="geometry" />
        </mxCell>
        <mxCell id="7d933b09d9755ecc-38" value="" style="verticalLabelPosition=bottom;aspect=fixed;html=1;verticalAlign=top;strokeColor=none;shape=mxgraph.citrix.tower_server;rounded=0;shadow=0;comic=0;fontFamily=Verdana;" parent="1" vertex="1">
          <mxGeometry x="1733" y="550" width="65" height="85" as="geometry" />
        </mxCell>
        <mxCell id="7d933b09d9755ecc-41" value="Trust relationship" style="html=1;exitX=1;exitY=0.5;labelBackgroundColor=none;startFill=0;endArrow=block;endFill=1;strokeColor=#FF0000;strokeWidth=1;fontFamily=Verdana;fontSize=12;entryX=1;entryY=0.5;curved=1;" parent="1" source="7d933b09d9755ecc-14" target="7d933b09d9755ecc-31" edge="1">
          <mxGeometry x="0.0622" relative="1" as="geometry">
            <mxPoint x="660" y="490" as="targetPoint" />
            <Array as="points">
              <mxPoint x="890" y="270" />
            </Array>
            <mxPoint as="offset" />
          </mxGeometry>
        </mxCell>
        <mxCell id="GAOGBGgqRIjmbGgpfT8p-2" value="" style="ellipse;whiteSpace=wrap;html=1;" vertex="1" parent="1">
          <mxGeometry x="1022.25" y="682" width="120" height="80" as="geometry" />
        </mxCell>
        <mxCell id="GAOGBGgqRIjmbGgpfT8p-3" value="Users" style="verticalLabelPosition=bottom;aspect=fixed;html=1;verticalAlign=top;strokeColor=none;shape=mxgraph.citrix.users;rounded=0;shadow=0;comic=0;fontFamily=Verdana;" vertex="1" parent="1">
          <mxGeometry x="1050" y="700" width="64.5" height="55" as="geometry" />
        </mxCell>
        <mxCell id="GAOGBGgqRIjmbGgpfT8p-4" value="" style="verticalLabelPosition=bottom;aspect=fixed;html=1;verticalAlign=top;strokeColor=none;shape=mxgraph.citrix.tower_server;rounded=0;shadow=0;comic=0;fontFamily=Verdana;" vertex="1" parent="1">
          <mxGeometry x="1053" y="383" width="65" height="85" as="geometry" />
        </mxCell>
        <mxCell id="GAOGBGgqRIjmbGgpfT8p-5" value="System 1(Victim)" style="text;html=1;strokeColor=none;fillColor=none;align=center;verticalAlign=middle;whiteSpace=wrap;rounded=0;" vertex="1" parent="1">
          <mxGeometry x="1037.75" y="468" width="95.5" height="30" as="geometry" />
        </mxCell>
        <mxCell id="GAOGBGgqRIjmbGgpfT8p-6" value="System 1" style="text;html=1;strokeColor=none;fillColor=none;align=center;verticalAlign=middle;whiteSpace=wrap;rounded=0;" vertex="1" parent="1">
          <mxGeometry x="1735.5" y="190" width="60" height="30" as="geometry" />
        </mxCell>
        <mxCell id="GAOGBGgqRIjmbGgpfT8p-8" value="teamserver" style="triangle;whiteSpace=wrap;html=1;rounded=0;shadow=0;comic=0;strokeWidth=1;fontFamily=Verdana;direction=north;labelPosition=center;verticalLabelPosition=bottom;align=center;verticalAlign=top;" vertex="1" parent="1">
          <mxGeometry x="527.5" y="-20" width="230" height="240" as="geometry" />
        </mxCell>
        <mxCell id="GAOGBGgqRIjmbGgpfT8p-9" value="" style="verticalLabelPosition=bottom;aspect=fixed;html=1;verticalAlign=top;strokeColor=none;shape=mxgraph.citrix.tower_server;rounded=0;shadow=0;comic=0;fontFamily=Verdana;" vertex="1" parent="1">
          <mxGeometry x="610" y="50" width="65" height="85" as="geometry" />
        </mxCell>
        <mxCell id="GAOGBGgqRIjmbGgpfT8p-10" value="Linode-Kali" style="text;html=1;strokeColor=none;fillColor=none;align=center;verticalAlign=middle;whiteSpace=wrap;rounded=0;" vertex="1" parent="1">
          <mxGeometry x="597.5" y="160" width="77.5" height="30" as="geometry" />
        </mxCell>
        <mxCell id="GAOGBGgqRIjmbGgpfT8p-11" value="" style="ellipse;shape=cloud;whiteSpace=wrap;html=1;" vertex="1" parent="1">
          <mxGeometry x="567.5" y="275" width="190" height="80" as="geometry" />
        </mxCell>
        <mxCell id="GAOGBGgqRIjmbGgpfT8p-12" value="Mesh(public network)" style="text;html=1;strokeColor=none;fillColor=none;align=center;verticalAlign=middle;whiteSpace=wrap;rounded=0;" vertex="1" parent="1">
          <mxGeometry x="610" y="300" width="120" height="30" as="geometry" />
        </mxCell>
        <mxCell id="GAOGBGgqRIjmbGgpfT8p-15" value="CS Client" style="triangle;whiteSpace=wrap;html=1;rounded=0;shadow=0;comic=0;strokeWidth=1;fontFamily=Verdana;direction=north;labelPosition=center;verticalLabelPosition=bottom;align=center;verticalAlign=top;" vertex="1" parent="1">
          <mxGeometry x="380" y="300" width="230" height="240" as="geometry" />
        </mxCell>
        <mxCell id="GAOGBGgqRIjmbGgpfT8p-17" value="" style="verticalLabelPosition=bottom;aspect=fixed;html=1;verticalAlign=top;strokeColor=none;shape=mxgraph.citrix.tower_server;rounded=0;shadow=0;comic=0;fontFamily=Verdana;" vertex="1" parent="1">
          <mxGeometry x="462.5" y="400" width="65" height="85" as="geometry" />
        </mxCell>
        <mxCell id="GAOGBGgqRIjmbGgpfT8p-19" value="Trust relationship" style="html=1;labelBackgroundColor=none;startArrow=none;startFill=0;endArrow=block;endFill=1;strokeColor=#FF0000;strokeWidth=1;fontFamily=Verdana;fontSize=12;entryX=1;entryY=0.5;curved=1;exitX=1;exitY=0.5;exitDx=0;exitDy=0;" edge="1" parent="1" source="7d933b09d9755ecc-14">
          <mxGeometry x="-0.1092" y="55" relative="1" as="geometry">
            <mxPoint x="1100" y="663" as="sourcePoint" />
            <mxPoint x="1768" y="443" as="targetPoint" />
            <Array as="points">
              <mxPoint x="1405" y="543" />
            </Array>
            <mxPoint as="offset" />
          </mxGeometry>
        </mxCell>
        <mxCell id="GAOGBGgqRIjmbGgpfT8p-27" value="" style="endArrow=classic;startArrow=classic;html=1;rounded=0;curved=1;entryX=0.108;entryY=0.671;entryDx=0;entryDy=0;entryPerimeter=0;" edge="1" parent="1" target="GAOGBGgqRIjmbGgpfT8p-4">
          <mxGeometry width="50" height="50" relative="1" as="geometry">
            <mxPoint x="562.25" y="445" as="sourcePoint" />
            <mxPoint x="612.25" y="395" as="targetPoint" />
          </mxGeometry>
        </mxCell>
        <mxCell id="GAOGBGgqRIjmbGgpfT8p-28" value="" style="ellipse;whiteSpace=wrap;html=1;" vertex="1" parent="1">
          <mxGeometry x="840" y="363" width="120" height="80" as="geometry" />
        </mxCell>
        <mxCell id="GAOGBGgqRIjmbGgpfT8p-29" value="initial beacon" style="text;html=1;strokeColor=none;fillColor=none;align=center;verticalAlign=middle;whiteSpace=wrap;rounded=0;" vertex="1" parent="1">
          <mxGeometry x="870" y="388" width="60" height="30" as="geometry" />
        </mxCell>
        <mxCell id="GAOGBGgqRIjmbGgpfT8p-30" value="" style="ellipse;whiteSpace=wrap;html=1;" vertex="1" parent="1">
          <mxGeometry x="1400" y="265" width="120" height="80" as="geometry" />
        </mxCell>
        <mxCell id="GAOGBGgqRIjmbGgpfT8p-31" value="lateral Movement" style="text;html=1;strokeColor=none;fillColor=none;align=center;verticalAlign=middle;whiteSpace=wrap;rounded=0;" vertex="1" parent="1">
          <mxGeometry x="1430" y="290" width="60" height="30" as="geometry" />
        </mxCell>
        <mxCell id="GAOGBGgqRIjmbGgpfT8p-33" value="" style="html=1;labelBackgroundColor=none;startArrow=none;startFill=0;endArrow=block;endFill=1;strokeColor=#FF0000;strokeWidth=1;fontFamily=Verdana;fontSize=12;entryX=0.023;entryY=0.341;curved=1;exitX=1.046;exitY=0.412;exitDx=0;exitDy=0;exitPerimeter=0;entryDx=0;entryDy=0;entryPerimeter=0;" edge="1" parent="1" source="GAOGBGgqRIjmbGgpfT8p-4" target="7d933b09d9755ecc-21">
          <mxGeometry x="-0.1092" y="55" relative="1" as="geometry">
            <mxPoint x="1105" y="240" as="sourcePoint" />
            <mxPoint x="1778" y="453" as="targetPoint" />
            <Array as="points">
              <mxPoint x="1415" y="553" />
            </Array>
            <mxPoint as="offset" />
          </mxGeometry>
        </mxCell>
      </root>
    </mxGraphModel>
  </diagram>
</mxfile>
